<?xml version="1.0" encoding="iso-8859-1"?>
<!-- Generator: Adobe Illustrator 22.0.1, SVG Export Plug-In . SVG Version: 6.00 Build 0)  -->
<svg version="1.1" id="Layer_1" xmlns="http://www.w3.org/2000/svg" xmlns:xlink="http://www.w3.org/1999/xlink" x="0px" y="0px"
	 viewBox="0 0 74.998 31.166" style="enable-background:new 0 0 74.998 31.166;" xml:space="preserve">
<g id="Document" transform="scale(1 -1)">
	<g id="Spread" transform="translate(0 -31.166)">
		<g id="Layer_1_1_">
			<g id="Group">
				<path style="fill:#0A0F11;" d="M6.701,11.072V9.671c-0.19,0.211-0.203,0.43-0.848,0.43H3.981v-9.04
					c0-0.583,0.09-0.652,0.344-0.847h-1.95c0.254,0.195,0.344,0.264,0.344,0.847l-0.002,9.04H0.872c-0.67,0-0.682-0.219-0.872-0.43
					v1.401H6.701"/>
				<path style="fill:#0A0F11;" d="M9.087,5.306V1.061c0-0.583,0.086-0.652,0.34-0.847H7.48c0.253,0.195,0.341,0.264,0.341,0.847
					v9.12c0,0.581-0.088,0.651-0.341,0.846h2.908c2.718,0,3.842-0.873,3.842-2.99c0-0.972-0.733-2.231-2.298-2.536l2.198-4.44
					c0.391-0.64,0.452-0.664,0.669-0.847h-1.654l-2.44,5.092l-0.512,0.922c0.948,0,2.775,0.049,2.775,1.821
					c0,1.177-0.645,2.007-2.58,2.007H9.087V5.306"/>
				<path style="fill:#0A0F11;" d="M60.584,5.306V1.061c0-0.583,0.088-0.652,0.342-0.847H58.98c0.25,0.195,0.34,0.264,0.34,0.847
					v9.12c0,0.581-0.09,0.651-0.34,0.846h2.906c2.718,0,3.845-0.873,3.845-2.99c0-0.972-0.736-2.231-2.303-2.536l2.2-4.44
					c0.392-0.64,0.457-0.664,0.67-0.847h-1.655l-2.441,5.092l-0.513,0.922c0.951,0,2.778,0.049,2.778,1.821
					c0,1.177-0.647,2.007-2.581,2.007h-1.302V5.306"/>
				<path style="fill:#0A0F11;" d="M15.94,10.189c0,0.582-0.09,0.649-0.342,0.842h5.778V9.622c-0.125,0.166-0.164,0.442-0.86,0.442
					h-3.314v-3.42l2.292-0.05c0.657,0,0.684,0.123,0.835,0.318V5.306C20.2,5.47,20.2,5.624,19.533,5.624l-2.331,0.049V1.185h3.314
					c0.682,0,0.696,0.248,0.86,0.443V0.214h-5.778c0.252,0.195,0.342,0.264,0.342,0.847V10.189"/>
				<path style="fill:#0A0F11;" d="M22.752,10.238c0,0.58-0.088,0.649-0.342,0.844h1.948c-0.254-0.195-0.34-0.264-0.34-0.844V1.185
					h2.497c0.68,0,0.704,0.277,0.86,0.443V0.214H22.41c0.254,0.195,0.342,0.264,0.342,0.847V10.238"/>
				<path style="fill:#0A0F11;" d="M28.569,10.238c0,0.58-0.088,0.649-0.34,0.844h1.946c-0.254-0.195-0.34-0.264-0.34-0.844V1.185
					h2.324c0.68,0,0.707,0.277,0.857,0.443V0.214h-4.787c0.252,0.195,0.34,0.264,0.34,0.847V10.238"/>
				<path style="fill:#0A0F11;" d="M34.283,9.515c0,1.151-0.086,1.219-0.339,1.411h5.777V9.515c-0.127,0.168-0.166,0.443-0.86,0.443
					h-3.312V6.717l2.437-0.051c0.656,0,0.681,0.125,0.834,0.32V5.378c-0.127,0.168-0.127,0.319-0.795,0.319l-2.476,0.049V1.185
					h3.312c0.682,0,0.694,0.248,0.86,0.443V0.214h-5.777c0.253,0.195,0.339,0.264,0.339,0.279V9.515"/>
				<path style="fill:#0A0F11;" d="M41.133,10.078c0,0.584-0.091,0.654-0.34,0.846h2.693c1.794,0,3.752-0.235,3.752-2.507
					c0-1.565-1.024-2.277-1.833-2.417V5.972c0.911,0,2.414-0.768,2.414-2.777c0-2.796-2.654-2.981-4.333-2.981h-2.693
					c0.249,0.195,0.34,0.264,0.34,0.847V10.078z M42.4,6.162l-0.004-4.977h1.09c1.442,0,3.068,0.183,3.068,2.067
					c0,1.827-1.434,2.544-3.025,2.544c-0.494,0,0,0.295,0,0.295c1.948,0,2.396,0.915,2.445,2.204c0,1.617-1.339,1.66-2.488,1.66
					h-1.09L42.4,6.162"/>
				<path style="fill:#0A0F11;" d="M48.432,5.497c0,2.916,1.948,5.585,4.926,5.585c2.851,0,4.825-2.626,4.825-5.585
					c0-2.741-1.88-5.497-4.866-5.497C50.478,0,48.432,2.58,48.432,5.497z M53.329,1.093c2.194,0,3.484,2.276,3.484,4.434
					c0,2.403-1.44,4.459-3.472,4.459c-2.181,0-3.537-2.142-3.537-4.459C49.804,3.309,51.136,1.093,53.329,1.093"/>
				<path style="fill:#0A0F11;" d="M73.536,5.161l-1.184-0.009c-0.669,0-0.669-0.153-0.796-0.319v1.608
					c0.153-0.195,0.176-0.32,0.833-0.32l2.609,0.007v0.047V1.036C74.107,0.446,72.733,0,71.519,0c-3.03,0-5.031,2.191-5.031,5.505
					c0,3.355,2.192,5.736,5.031,5.736c1.71,0,2.353-0.812,2.808-0.812c0.131,0,0.204,0.059,0.336,0.161V8.507
					c-0.132,0.134-1.156,1.627-2.94,1.627c-2.177,0-3.772-1.952-3.772-4.603c0-2.439,1.386-4.422,3.684-4.422
					c0.658,0,1.274,0.15,1.901,0.459V5.161"/>
				<path marker-start="none" marker-end="none" style="fill:#A39245;" d="M23.437,28.833v-1.402h4.09v-7.433h1.389v7.433h4.181
					v1.402H23.437z"/>
				<path marker-start="none" marker-end="none" style="fill:#A39245;" d="M17.509,31.166l10.696-17.184l2.845,4.522l2.87-4.522
					l2.832,4.522l2.818-4.522l2.805,4.509l2.818-4.509l10.709,17.184h-5.636H44.63h-5.716h-0.773H22.765H17.509z M20.353,29.58
					h2.412h13.318l-7.878-12.636L20.353,29.58z M37.931,29.58h3.867L33.92,16.944l-1.94,3.081L37.931,29.58z M43.646,29.58h3.802
					L39.57,16.944l-1.888,3.081L43.646,29.58z M49.283,29.58h3.801l-7.891-12.636l-1.887,3.041L49.283,29.58z"/>
			</g>
		</g>
	</g>
</g>
</svg>
